<svg data-name="Layer 1" xmlns="http://www.w3.org/2000/svg" viewBox="0 0 47 47">
  <path d="M23.5 0A23.5 23.5 0 1047 23.5 23.5 23.5 0 0023.5 0zm11.78 33.12a3.12 3.12 0 01-.62 2.1 2.14 2.14 0 01-1.68.7 2.06 2.06 0 01-1.61-.7 3 3 0 01-.64-2.1V16.26l-3.91 15.56c-.26 1-.46 1.75-.63 2.22a3 3 0 01-.89 1.3 2.63 2.63 0 01-1.8.58 2.71 2.71 0 01-1.46-.38 2.76 2.76 0 01-.94-.94 5.6 5.6 0 01-.52-1.3q-.19-.7-.39-1.47l-3.92-15.57v16.86a3.12 3.12 0 01-.62 2.1 2.11 2.11 0 01-1.66.7 2.1 2.1 0 01-1.63-.69 3 3 0 01-.64-2.11V13.79a2.4 2.4 0 01.88-2.19 3.9 3.9 0 012.25-.56h1.53a5.8 5.8 0 012 .25 1.66 1.66 0 01.92.9 13.46 13.46 0 01.68 2.11l3.52 13.42 3.55-13.38a14.63 14.63 0 01.68-2.11 1.67 1.67 0 01.93-.9 5.8 5.8 0 012-.25h1.54a4 4 0 012.25.56 2.42 2.42 0 01.83 2.15z"/>
</svg>